<svg id="visual" viewBox="0 0 960 540" width="960" height="540" xmlns="http://www.w3.org/2000/svg" xmlns:xlink="http://www.w3.org/1999/xlink" version="1.1"><rect x="0" y="0" width="960" height="540" fill="#2f006f"></rect><path d="M0 382L22.8 378.7C45.7 375.3 91.3 368.7 137 374.2C182.7 379.7 228.3 397.3 274 402.7C319.7 408 365.3 401 411.2 397.7C457 394.3 503 394.7 548.8 395.3C594.7 396 640.3 397 686 401.8C731.7 406.7 777.3 415.3 823 411.8C868.7 408.3 914.3 392.7 937.2 384.8L960 377L960 541L937.2 541C914.3 541 868.7 541 823 541C777.3 541 731.7 541 686 541C640.3 541 594.7 541 548.8 541C503 541 457 541 411.2 541C365.3 541 319.7 541 274 541C228.3 541 182.7 541 137 541C91.3 541 45.7 541 22.8 541L0 541Z" fill="#5f00e1"></path><path d="M0 407L22.8 406.8C45.7 406.7 91.3 406.3 137 403.2C182.7 400 228.3 394 274 394C319.7 394 365.3 400 411.2 410.3C457 420.7 503 435.3 548.8 435.7C594.7 436 640.3 422 686 421.2C731.7 420.3 777.3 432.7 823 432.5C868.7 432.3 914.3 419.7 937.2 413.3L960 407L960 541L937.2 541C914.3 541 868.7 541 823 541C777.3 541 731.7 541 686 541C640.3 541 594.7 541 548.8 541C503 541 457 541 411.2 541C365.3 541 319.7 541 274 541C228.3 541 182.7 541 137 541C91.3 541 45.7 541 22.8 541L0 541Z" fill="#5200c0"></path><path d="M0 432L22.8 436.2C45.7 440.3 91.3 448.7 137 448.7C182.7 448.7 228.3 440.3 274 440C319.7 439.7 365.3 447.3 411.2 452.3C457 457.3 503 459.7 548.8 453.7C594.7 447.7 640.3 433.3 686 428.7C731.7 424 777.3 429 823 435C868.7 441 914.3 448 937.2 451.5L960 455L960 541L937.2 541C914.3 541 868.7 541 823 541C777.3 541 731.7 541 686 541C640.3 541 594.7 541 548.8 541C503 541 457 541 411.2 541C365.3 541 319.7 541 274 541C228.3 541 182.7 541 137 541C91.3 541 45.7 541 22.8 541L0 541Z" fill="#4500a0"></path><path d="M0 465L22.8 465.3C45.7 465.7 91.3 466.3 137 469.7C182.7 473 228.3 479 274 476.5C319.7 474 365.3 463 411.2 462.3C457 461.7 503 471.3 548.8 474.7C594.7 478 640.3 475 686 474.3C731.7 473.7 777.3 475.3 823 476.8C868.7 478.3 914.3 479.7 937.2 480.3L960 481L960 541L937.2 541C914.3 541 868.7 541 823 541C777.3 541 731.7 541 686 541C640.3 541 594.7 541 548.8 541C503 541 457 541 411.2 541C365.3 541 319.7 541 274 541C228.3 541 182.7 541 137 541C91.3 541 45.7 541 22.8 541L0 541Z" fill="#380082"></path><path d="M0 497L22.8 498.5C45.7 500 91.3 503 137 501.2C182.7 499.3 228.3 492.7 274 489.3C319.7 486 365.3 486 411.2 485.7C457 485.3 503 484.7 548.8 481.5C594.7 478.3 640.3 472.7 686 470C731.7 467.3 777.3 467.7 823 468C868.7 468.3 914.3 468.7 937.2 468.8L960 469L960 541L937.2 541C914.3 541 868.7 541 823 541C777.3 541 731.7 541 686 541C640.3 541 594.7 541 548.8 541C503 541 457 541 411.2 541C365.3 541 319.7 541 274 541C228.3 541 182.7 541 137 541C91.3 541 45.7 541 22.8 541L0 541Z" fill="#2c0065"></path><path d="M0 506L22.8 506.3C45.7 506.7 91.3 507.3 137 509.7C182.7 512 228.3 516 274 516.5C319.7 517 365.3 514 411.2 514C457 514 503 517 548.8 516.8C594.7 516.7 640.3 513.3 686 513.2C731.7 513 777.3 516 823 516.2C868.7 516.3 914.3 513.7 937.2 512.3L960 511L960 541L937.2 541C914.3 541 868.7 541 823 541C777.3 541 731.7 541 686 541C640.3 541 594.7 541 548.8 541C503 541 457 541 411.2 541C365.3 541 319.7 541 274 541C228.3 541 182.7 541 137 541C91.3 541 45.7 541 22.8 541L0 541Z" fill="#1f0049"></path></svg>