<svg id="visual" viewBox="0 0 960 540" width="960" height="540" xmlns="http://www.w3.org/2000/svg" xmlns:xlink="http://www.w3.org/1999/xlink" version="1.1"><rect x="0" y="0" width="960" height="540" fill="#1f0049"></rect><path d="M189 0L192 15C195 30 201 60 207.5 90C214 120 221 150 214.8 180C208.7 210 189.3 240 178.7 270C168 300 166 330 174.2 360C182.3 390 200.7 420 199.8 450C199 480 179 510 169 525L159 540L0 540L0 525C0 510 0 480 0 450C0 420 0 390 0 360C0 330 0 300 0 270C0 240 0 210 0 180C0 150 0 120 0 90C0 60 0 30 0 15L0 0Z" fill="#5f00e1" stroke-linecap="round" stroke-linejoin="miter"></path></svg>